<svg xmlns="http://www.w3.org/2000/svg" xmlns:xlink="http://www.w3.org/1999/xlink" width="2400" height="1200" style="border: 1px solid black; overflow: hidden;"><defs/><g id="container"><g id="container_1" transform="matrix(1.7982,0.0000,0.0000,1.7982,-992.3022,136.00)"><g id="container_2"><path d="M 1000 525.0000000000002L 1468.73046875 525.0000000000002L 1468.73046875 405.0000000000001L 1000 405.0000000000001L 1000 525.0000000000002" style="fill:#e2a2fd;stroke:#e2a2fd;stroke-linecap:round;stroke-miterlimit:10;" id="shape"/><path d="M 1000 224.99999999999997L 1468.73046875 224.99999999999997L 1468.73046875 104.99999999999999L 1000 104.99999999999999L 1000 224.99999999999997" style="fill:#c8c8ff;fill-opacity:0.8;stroke:#c8c8ff;stroke-opacity:0.8;stroke-linecap:round;stroke-miterlimit:10;" id="shape_1"/><path d="M 1000 285L 1468.73046875 285L 1468.73046875 224.99999999999997L 1000 224.99999999999997L 1000 285" style="fill:#f8cf94;stroke:#f8cf94;stroke-linecap:round;stroke-miterlimit:10;" id="shape_2"/><path d="M 1000 405.0000000000001L 1468.73046875 405.0000000000001L 1468.73046875 345.00000000000006L 1000 345.00000000000006L 1000 405.0000000000001" style="fill:#000000;fill-opacity:0.21;stroke:#000000;stroke-opacity:0.21;stroke-linecap:round;stroke-miterlimit:10;" id="shape_3"/><path d="M 1000 104.99999999999999L 1468.73046875 104.99999999999999L 1468.73046875 45L 1000 45L 1000 104.99999999999999" style="fill:#c8c8ff;fill-opacity:0.8;stroke:#c8c8ff;stroke-opacity:0.8;stroke-linecap:round;stroke-miterlimit:10;" id="shape_4"/><path d="M 1000 345.00000000000006L 1468.73046875 345.00000000000006L 1468.73046875 315.00000000000006L 1000 315.00000000000006L 1000 345.00000000000006" style="fill:#adf7ad;stroke:#adf7ad;stroke-linecap:round;stroke-miterlimit:10;" id="shape_5"/><path d="M 1000 315.00000000000006L 1468.73046875 315.00000000000006L 1468.73046875 285L 1000 285L 1000 315.00000000000006" style="fill:#adf7ad;stroke:#adf7ad;stroke-linecap:round;stroke-miterlimit:10;" id="shape_6"/></g><g id="container_3"/><g id="container_4"><g id="I11"><path d="M 1005 330.00000000000006L 979.966100989256 330.00000000000006" style="fill:none;stroke:#aaaaaa;stroke-width:0.3;stroke-linecap:round;stroke-miterlimit:10;stroke-dasharray:5,10;" id="shape_7"/><text id="text" transform="matrix(1.0000,0.0000,0.0000,1.0000,1005.0000,337.34)" fill="#000000" style="font-style:italic;font-size:20px;font-family:Georgia;">Curvibacter sp. PAE-UM (NZ_KQ483358.1)</text><path d="M 979.966100989256 330.00000000000006L 960.6226391381939 330.00000000000006" style="fill:none;stroke:#000000;stroke-linecap:round;stroke-miterlimit:10;" id="shape_8"/></g><g id="I37"><path d="M 1005 90L 937.9508854614427 90" style="fill:none;stroke:#aaaaaa;stroke-width:0.3;stroke-linecap:round;stroke-miterlimit:10;stroke-dasharray:5,10;" id="shape_9"/><text id="text_1" transform="matrix(1.0000,0.0000,0.0000,1.0000,1005.0000,97.34)" fill="#000000" style="font-style:italic;font-size:20px;font-family:Georgia;">Limnohabitans sp. 103DPR2 (NZ_CP011834.1)</text><path d="M 937.9508854614427 90L 929.0818925498281 90" style="fill:none;stroke:#000000;stroke-linecap:round;stroke-miterlimit:10;" id="shape_10"/></g><g id="I40"><path d="M 1005 150L 960.7675182191037 150" style="fill:none;stroke:#aaaaaa;stroke-width:0.3;stroke-linecap:round;stroke-miterlimit:10;stroke-dasharray:5,10;" id="shape_11"/><text id="text_2" transform="matrix(1.0000,0.0000,0.0000,1.0000,1005.0000,157.34)" fill="#000000" style="font-style:italic;font-size:20px;font-family:Georgia;">Limnohabitans sp. Rim47 (2684622883)</text><path d="M 960.7675182191037 150L 947.7368378458218 150" style="fill:none;stroke:#000000;stroke-linecap:round;stroke-miterlimit:10;" id="shape_12"/></g><g id="I12"><path d="M 968.6629740959849 420.0000000000001L 960.6226391381939 420.0000000000001M 968.6629740959849 465.00000000000017L 968.6629740959849 375.00000000000006" style="fill:none;stroke:#000000;stroke-linecap:round;stroke-miterlimit:10;" id="shape_13"/></g><g id="I36"><path d="M 1005 60L 937.8182857124666 60" style="fill:none;stroke:#aaaaaa;stroke-width:0.3;stroke-linecap:round;stroke-miterlimit:10;stroke-dasharray:5,10;" id="shape_14"/><text id="text_3" transform="matrix(1.0000,0.0000,0.0000,1.0000,1005.0000,67.34)" fill="#000000" style="font-style:italic;font-size:20px;font-family:Georgia;">Limnohabitans sp. Rim11 (CXOM00000000.1)</text><path d="M 937.8182857124666 60L 929.0818925498281 60" style="fill:none;stroke:#000000;stroke-linecap:round;stroke-miterlimit:10;" id="shape_15"/></g><g id="I17"><path d="M 985.7948967561439 435.0000000000001L 980.3493535042877 435.0000000000001M 985.7948967561439 450.0000000000001L 985.7948967561439 420.0000000000001" style="fill:none;stroke:#000000;stroke-linecap:round;stroke-miterlimit:10;" id="shape_16"/></g><g id="I22"><path d="M 1005 510.00000000000017L 999.960229783786 510.00000000000017" style="fill:none;stroke:#aaaaaa;stroke-width:0.3;stroke-linecap:round;stroke-miterlimit:10;stroke-dasharray:5,10;" id="shape_17"/><text id="text_4" transform="matrix(1.0000,0.0000,0.0000,1.0000,1005.0000,517.34)" fill="#000000" style="font-style:italic;font-size:20px;font-family:Georgia;">Ramlibacter sp. 5-10 (NZ_CP010951.1)</text><path d="M 999.960229783786 510.00000000000017L 983.4295505488311 510.00000000000017" style="fill:none;stroke:#000000;stroke-linecap:round;stroke-miterlimit:10;" id="shape_18"/></g><g id="I5"><path d="M 957.3949976597969 255L 948.4013916999639 255M 957.3949976597969 270L 957.3949976597969 240" style="fill:none;stroke:#000000;stroke-linecap:round;stroke-miterlimit:10;" id="shape_19"/></g><g id="I6"><path d="M 1005 240L 984.5051472089957 240" style="fill:none;stroke:#aaaaaa;stroke-width:0.3;stroke-linecap:round;stroke-miterlimit:10;stroke-dasharray:5,10;" id="shape_20"/><text id="text_5" transform="matrix(1.0000,0.0000,0.0000,1.0000,1005.0000,247.34)" fill="#000000" style="font-style:italic;font-size:20px;font-family:Georgia;">Rhodoferax sp. ED16 (AWQR01000001.1)</text><path d="M 984.5051472089957 240L 957.3949976597969 240" style="fill:none;stroke:#000000;stroke-linecap:round;stroke-miterlimit:10;" id="shape_21"/></g><g id="I16"><path d="M 980.3493535042877 465.00000000000017L 968.6629740959849 465.00000000000017M 980.3493535042877 495.00000000000017L 980.3493535042877 435.0000000000001" style="fill:none;stroke:#000000;stroke-linecap:round;stroke-miterlimit:10;" id="shape_22"/></g><g id="I20"><path d="M 983.4295505488311 495.00000000000017L 980.3493535042877 495.00000000000017M 983.4295505488311 510.00000000000017L 983.4295505488311 480.00000000000017" style="fill:none;stroke:#000000;stroke-linecap:round;stroke-miterlimit:10;" id="shape_23"/></g><g id="I0"><path d="M 947.7151292630894 194.99999999999997L 945.3551970116334 194.99999999999997M 947.7151292630894 209.99999999999997L 947.7151292630894 180" style="fill:none;stroke:#000000;stroke-linecap:round;stroke-miterlimit:10;" id="shape_24"/></g><g id="I8"><path d="M 953.7718343917053 337.50000000000006L 948.4013916999639 337.50000000000006M 953.7718343917053 375.00000000000006L 953.7718343917053 300.00000000000006" style="fill:none;stroke:#000000;stroke-linecap:round;stroke-miterlimit:10;" id="shape_25"/></g><g id="I2"><path d="M 945.3551970116334 164.99999999999997L 931.4963884456263 164.99999999999997M 945.3551970116334 194.99999999999997L 945.3551970116334 135" style="fill:none;stroke:#000000;stroke-linecap:round;stroke-miterlimit:10;" id="shape_26"/></g><g id="I39"><path d="M 1005 120L 959.358564841304 120" style="fill:none;stroke:#aaaaaa;stroke-width:0.3;stroke-linecap:round;stroke-miterlimit:10;stroke-dasharray:5,10;" id="shape_27"/><text id="text_6" transform="matrix(1.0000,0.0000,0.0000,1.0000,1005.0000,127.34)" fill="#000000" style="font-style:italic;font-size:20px;font-family:Georgia;">Limnohabitans sp. 2KL-27 (NZ_CXOP00000000.1)</text><path d="M 959.358564841304 120L 947.7368378458218 120" style="fill:none;stroke:#000000;stroke-linecap:round;stroke-miterlimit:10;" id="shape_28"/></g><g id="I18"><path d="M 1005 420.0000000000001L 1000 420.0000000000001" style="fill:none;stroke:#aaaaaa;stroke-width:0.3;stroke-linecap:round;stroke-miterlimit:10;stroke-dasharray:5,10;" id="shape_29"/><text id="text_7" transform="matrix(1.0000,0.0000,0.0000,1.0000,1005.0000,427.34)" fill="#000000" style="font-style:italic;font-size:20px;font-family:Georgia;">Ramlibacter sp. Leaf400 (NZ_LMQL01000001.1)</text><path d="M 1000 420.0000000000001L 985.7948967561439 420.0000000000001" style="fill:none;stroke:#000000;stroke-linecap:round;stroke-miterlimit:10;" id="shape_30"/></g><g id="I35"><path d="M 929.0818925498281 75L 915.1682111301888 75M 929.0818925498281 90L 929.0818925498281 60" style="fill:none;stroke:#000000;stroke-linecap:round;stroke-miterlimit:10;" id="shape_31"/></g><g id="I10"><path d="M 960.6226391381939 375.00000000000006L 953.7718343917053 375.00000000000006M 960.6226391381939 420.0000000000001L 960.6226391381939 330.00000000000006" style="fill:none;stroke:#000000;stroke-linecap:round;stroke-miterlimit:10;" id="shape_32"/></g><g id="I7"><path d="M 1005 270L 995.7656278005612 270" style="fill:none;stroke:#aaaaaa;stroke-width:0.3;stroke-linecap:round;stroke-miterlimit:10;stroke-dasharray:5,10;" id="shape_33"/><text id="text_8" transform="matrix(1.0000,0.0000,0.0000,1.0000,1005.0000,277.34)" fill="#000000" style="font-style:italic;font-size:20px;font-family:Georgia;">Rhodoferax sp. T118 (CP000267.1)</text><path d="M 995.7656278005612 270L 957.3949976597969 270" style="fill:none;stroke:#000000;stroke-linecap:round;stroke-miterlimit:10;" id="shape_34"/></g><g id="I4"><path d="M 948.4013916999639 296.25000000000006L 931.4963884456263 296.25000000000006M 948.4013916999639 337.50000000000006L 948.4013916999639 255" style="fill:none;stroke:#000000;stroke-linecap:round;stroke-miterlimit:10;" id="shape_35"/></g><g id="I41"><path d="M 1005 209.99999999999997L 958.9799131652527 209.99999999999997" style="fill:none;stroke:#aaaaaa;stroke-width:0.3;stroke-linecap:round;stroke-miterlimit:10;stroke-dasharray:5,10;" id="shape_36"/><text id="text_9" transform="matrix(1.0000,0.0000,0.0000,1.0000,1005.0000,217.34)" fill="#000000" style="font-style:italic;font-size:20px;font-family:Georgia;">Limnohabitans sp. 2KL-3 (NZ_CXON00000000.1)</text><path d="M 958.9799131652527 209.99999999999997L 947.7151292630894 209.99999999999997" style="fill:none;stroke:#000000;stroke-linecap:round;stroke-miterlimit:10;" id="shape_37"/></g><g id="I13"><path d="M 986.2233867791792 375.00000000000006L 968.6629740959849 375.00000000000006M 986.2233867791792 390.0000000000001L 986.2233867791792 360.00000000000006" style="fill:none;stroke:#000000;stroke-linecap:round;stroke-miterlimit:10;" id="shape_38"/></g><g id="I19"><path d="M 1005 450.0000000000001L 999.9690560807455 450.0000000000001" style="fill:none;stroke:#aaaaaa;stroke-width:0.3;stroke-linecap:round;stroke-miterlimit:10;stroke-dasharray:5,10;" id="shape_39"/><text id="text_10" transform="matrix(1.0000,0.0000,0.0000,1.0000,1005.0000,457.34)" fill="#000000" style="font-style:italic;font-size:20px;font-family:Georgia;">Ramlibacter sp. TTB310 (NC_015677.1)</text><path d="M 999.9690560807455 450.0000000000001L 985.7948967561439 450.0000000000001" style="fill:none;stroke:#000000;stroke-linecap:round;stroke-miterlimit:10;" id="shape_40"/></g><g id="I24"><path d="M 835.3955275848459 83.90625L 417.69776379242296 83.90625M 835.3955275848459 152.81250000000003L 835.3955275848459 15" style="fill:none;stroke:#000000;stroke-linecap:round;stroke-miterlimit:10;" id="shape_41"/></g><g id="I15"><path d="M 1005 390.0000000000001L 997.4832556878642 390.0000000000001" style="fill:none;stroke:#aaaaaa;stroke-width:0.3;stroke-linecap:round;stroke-miterlimit:10;stroke-dasharray:5,10;" id="shape_42"/><text id="text_11" transform="matrix(1.0000,0.0000,0.0000,1.0000,1005.0000,397.34)" fill="#000000" style="font-style:italic;font-size:20px;font-family:Georgia;">Variovorax sp. EPS (NC_014931.1)</text><path d="M 997.4832556878642 390.0000000000001L 986.2233867791792 390.0000000000001" style="fill:none;stroke:#000000;stroke-linecap:round;stroke-miterlimit:10;" id="shape_43"/></g><g id="I9"><path d="M 1005 300.00000000000006L 982.7869394188594 300.00000000000006" style="fill:none;stroke:#aaaaaa;stroke-width:0.3;stroke-linecap:round;stroke-miterlimit:10;stroke-dasharray:5,10;" id="shape_44"/><text id="text_12" transform="matrix(1.0000,0.0000,0.0000,1.0000,1005.0000,307.34)" fill="#000000" style="font-style:italic;font-size:20px;font-family:Georgia;">Curvibacter sp. ATCC (NZ_KB906253.1)</text><path d="M 982.7869394188594 300.00000000000006L 953.7718343917053 300.00000000000006" style="fill:none;stroke:#000000;stroke-linecap:round;stroke-miterlimit:10;" id="shape_45"/></g><g id="I21"><path d="M 1005 480.00000000000017L 999.8692146776409 480.00000000000017" style="fill:none;stroke:#aaaaaa;stroke-width:0.3;stroke-linecap:round;stroke-miterlimit:10;stroke-dasharray:5,10;" id="shape_46"/><text id="text_13" transform="matrix(1.0000,0.0000,0.0000,1.0000,1005.0000,487.34)" fill="#000000" style="font-style:italic;font-size:20px;font-family:Georgia;">Ramlibacter sp. MAG (2724679690)</text><path d="M 999.8692146776409 480.00000000000017L 983.4295505488311 480.00000000000017" style="fill:none;stroke:#000000;stroke-linecap:round;stroke-miterlimit:10;" id="shape_47"/></g><g id="I3"><path d="M 931.4963884456263 230.62500000000003L 915.1682111301888 230.62500000000003M 931.4963884456263 296.25000000000006L 931.4963884456263 164.99999999999997" style="fill:none;stroke:#000000;stroke-linecap:round;stroke-miterlimit:10;" id="shape_48"/></g><g id="I14"><path d="M 1005 360.00000000000006L 994.215549710891 360.00000000000006" style="fill:none;stroke:#aaaaaa;stroke-width:0.3;stroke-linecap:round;stroke-miterlimit:10;stroke-dasharray:5,10;" id="shape_49"/><text id="text_14" transform="matrix(1.0000,0.0000,0.0000,1.0000,1005.0000,367.34)" fill="#000000" style="font-style:italic;font-size:20px;font-family:Georgia;">Variovorax sp. 110B (NZ_KB907450.1)</text><path d="M 994.215549710891 360.00000000000006L 986.2233867791792 360.00000000000006" style="fill:none;stroke:#000000;stroke-linecap:round;stroke-miterlimit:10;" id="shape_50"/></g><g id="I25"><g id="shape_51"><path d="M 907.6227868269443 15L 835.3955275848459 15" style="fill:none;stroke:#000000;stroke-linecap:round;stroke-miterlimit:10;"/><path d="M 907.6227868269443 15L 978.0484496674635 45L 964.2366263749104 -15L 907.6227868269443 15" style="fill:#000000;fill-opacity:0.5;stroke:#000000;stroke-linecap:round;stroke-miterlimit:10;"/></g></g><g id="I23"><path d="M 915.1682111301888 152.81250000000003L 835.3955275848459 152.81250000000003M 915.1682111301888 230.62500000000003L 915.1682111301888 75" style="fill:none;stroke:#000000;stroke-linecap:round;stroke-miterlimit:10;" id="shape_52"/></g><g id="I38"><path d="M 947.7368378458218 135L 945.3551970116334 135M 947.7368378458218 150L 947.7368378458218 120" style="fill:none;stroke:#000000;stroke-linecap:round;stroke-miterlimit:10;" id="shape_53"/></g><g id="I1"><path d="M 1005 180L 959.4267283703099 180" style="fill:none;stroke:#aaaaaa;stroke-width:0.3;stroke-linecap:round;stroke-miterlimit:10;stroke-dasharray:5,10;" id="shape_54"/><text id="text_15" transform="matrix(1.0000,0.0000,0.0000,1.0000,1005.0000,187.34)" fill="#000000" style="font-style:italic;font-size:20px;font-family:Georgia;">Limnohabitans sp. II-D5 (NZ_LFYT00000000.1)</text><path d="M 959.4267283703099 180L 947.7151292630894 180" style="fill:none;stroke:#000000;stroke-linecap:round;stroke-miterlimit:10;" id="shape_55"/></g><g id="NR0"><g id="shape_56"><path d="M 417.69776379242296 83.90625L 0 83.90625" style="fill:none;stroke:#000000;stroke-linecap:round;stroke-miterlimit:10;"/><circle cx="417.69776379242296" cy="83.90625" r="2" style="fill:#000000;stroke:#000000;stroke-linecap:round;stroke-miterlimit:10;"/></g></g></g><g id="container_5"/><g id="container_6"><path d="M 13.5 0 L 5.4608647120308955 3.967550452974194 L 4.171729424061791 12.839262969984572 L -2.0858647120308946 6.419631484992287 L -10.92172942406179 7.935100905948389 L -6.75 8.266365894244634e-16 L -10.921729424061791 -7.935100905948386 L -2.085864712030896 -6.419631484992286 L 4.1717294240617875 -12.839262969984574 L 5.460864712030895 -3.967550452974195 L 13.5 -3.3065463576978537e-15 Z" style="fill:#000000;stroke:#000000;stroke-linecap:round;stroke-miterlimit:10;" id="shape_57" transform="matrix(0.9511,-0.3090,0.3090,0.9511,1488.7305,480.00)"/></g><g id="container_7"/><g id="container_8"/><g id="container_9"/></g><g id="container_10" transform="matrix(1.0000,0.0000,0.0000,1.0000,100.0000,100.00)"/><g id="container_11" transform="matrix(1.0000,0.0000,0.0000,1.0000,45.0000,36.00)"><path d="M 0 -3L 0 3M 0 0L 20.95427569897458 0M 20.95427569897458 -3L 20.95427569897458 3" style="fill:none;stroke:#000;stroke-width:0.5;stroke-linecap:round;stroke-miterlimit:10;" id="shape_59" transform="matrix(1.7982,0.0000,0.0000,1.0000,108.2275,8.00)"/><text id="text_16" transform="matrix(1.0000,0.0000,0.0000,1.0000,0.0000,10.51)" fill="#555" style="font-weight:bold;font-size:14px;font-family:Arial;">Tree scale: 0.1</text></g></g></svg>