<svg xmlns="http://www.w3.org/2000/svg" xmlns:xlink="http://www.w3.org/1999/xlink" width="2400" height="1200" style="border: 1px solid black; overflow: hidden;"><defs/><g id="container"><g id="container_1" transform="matrix(0.9203,0.0000,0.0000,0.9203,240.4796,319.33)"><g id="container_2"><path d="M 640.0000000000002 555.0000000000002L 1121.7187500000002 555.0000000000002L 1121.7187500000002 345.00000000000006L 640.0000000000002 345.00000000000006L 640.0000000000002 555.0000000000002" style="fill:#e2a2fd;stroke:#e2a2fd;stroke-linecap:round;stroke-miterlimit:10;" id="shape"/></g><g id="container_3"/><g id="container_4"><g id="I80"><g id="shape_1"><path d="M 517.8017801780179 75L 483.96089608960904 75" style="fill:none;stroke:#000000;stroke-linecap:round;stroke-miterlimit:10;"/><path d="M 517.8017801780179 75L 560.881088108811 105L 541.4041404140415 45L 517.8017801780179 75" style="fill:#000000;fill-opacity:0.5;stroke:#000000;stroke-linecap:round;stroke-miterlimit:10;"/></g></g><g id="I27"><path d="M 526.0026002600262 225L 515.6390639063907 225M 526.0026002600262 255.00000000000003L 526.0026002600262 195" style="fill:none;stroke:#000000;stroke-linecap:round;stroke-miterlimit:10;" id="shape_2"/></g><g id="I67"><path d="M 388.4388438843885 93.10546875000001L 194.21942194219426 93.10546875000001M 388.4388438843885 171.21093750000003L 388.4388438843885 15.000000000000002" style="fill:none;stroke:#000000;stroke-linecap:round;stroke-miterlimit:10;" id="shape_3"/></g><g id="I61"><path d="M 645.0000000000002 480.0000000000001L 593.9343934393441 480.0000000000001" style="fill:none;stroke:#aaaaaa;stroke-width:0.3;stroke-linecap:round;stroke-miterlimit:10;stroke-dasharray:5,10;" id="shape_4"/><text id="text" transform="matrix(1.0000,0.0000,0.0000,1.0000,645.0000,487.34)" fill="#000000" style="font-style:italic;font-size:20px;font-family:Georgia;">Ramlibacter sp. J26 (gb|KX395636.1)</text><path d="M 593.9343934393441 480.0000000000001L 580.5330533053307 480.0000000000001" style="fill:none;stroke:#000000;stroke-linecap:round;stroke-miterlimit:10;" id="shape_5"/></g><g id="I31"><g id="shape_6"><path d="M 531.990699069907 135L 505.7130713071308 135" style="fill:none;stroke:#000000;stroke-linecap:round;stroke-miterlimit:10;"/><path d="M 531.990699069907 135L 604.8604860486049 165L 567.1067106710672 105L 531.990699069907 135" style="fill:#000000;fill-opacity:0.5;stroke:#000000;stroke-linecap:round;stroke-miterlimit:10;"/></g></g><g id="I63"><path d="M 645.0000000000002 510.00000000000017L 603.5728572857288 510.00000000000017" style="fill:none;stroke:#aaaaaa;stroke-width:0.3;stroke-linecap:round;stroke-miterlimit:10;stroke-dasharray:5,10;" id="shape_7"/><text id="text_1" transform="matrix(1.0000,0.0000,0.0000,1.0000,645.0000,517.34)" fill="#000000" style="font-style:italic;font-size:20px;font-family:Georgia;">Ramlibacter sp. TMB834 (ref|NR_025203.1)</text><path d="M 603.5728572857288 510.00000000000017L 593.0718071807182 510.00000000000017" style="fill:none;stroke:#000000;stroke-linecap:round;stroke-miterlimit:10;" id="shape_8"/></g><g id="I42"><path d="M 503.2253225322533 267.42187500000006L 483.96089608960904 267.42187500000006M 503.2253225322533 354.8437500000001L 503.2253225322533 180" style="fill:none;stroke:#000000;stroke-linecap:round;stroke-miterlimit:10;" id="shape_9"/></g><g id="I51"><path d="M 520.889588958896 394.68750000000006L 509.62596259625974 394.68750000000006M 520.889588958896 394.68750000000006L 520.889588958896 394.68750000000006" style="fill:none;stroke:#000000;stroke-linecap:round;stroke-miterlimit:10;" id="shape_10"/></g><g id="I26"><g id="shape_11"><path d="M 564.6939693969398 255.00000000000003L 526.0026002600262 255.00000000000003" style="fill:none;stroke:#000000;stroke-linecap:round;stroke-miterlimit:10;"/><path d="M 564.6939693969398 255.00000000000003L 1000.0000000000002 285.00000000000006L 598.5848584858487 225.00000000000003L 564.6939693969398 255.00000000000003" style="fill:#000000;fill-opacity:0.5;stroke:#000000;stroke-linecap:round;stroke-miterlimit:10;"/></g></g><g id="I54"><path d="M 645.0000000000002 360.0000000000001L 569.6444644464448 360.0000000000001" style="fill:none;stroke:#aaaaaa;stroke-width:0.3;stroke-linecap:round;stroke-miterlimit:10;stroke-dasharray:5,10;" id="shape_12"/><text id="text_2" transform="matrix(1.0000,0.0000,0.0000,1.0000,645.0000,367.34)" fill="#000000" style="font-style:italic;font-size:20px;font-family:Georgia;">Ramlibacter sp. strain 5-10 (ref|NR_133837.1)</text><path d="M 569.6444644464448 360.0000000000001L 538.3788378837885 360.0000000000001" style="fill:none;stroke:#000000;stroke-linecap:round;stroke-miterlimit:10;" id="shape_13"/></g><g id="I71"><g id="shape_14"><path d="M 502.3377337733775 15.000000000000002L 388.4388438843885 15.000000000000002" style="fill:none;stroke:#000000;stroke-linecap:round;stroke-miterlimit:10;"/><path d="M 502.3377337733775 15.000000000000002L 556.0931093109313 45.00000000000001L 509.9009900990101 -15.000000000000002L 502.3377337733775 15.000000000000002" style="fill:#000000;fill-opacity:0.5;stroke:#000000;stroke-linecap:round;stroke-miterlimit:10;"/></g></g><g id="I57"><path d="M 586.8711871187121 435.0000000000001L 561.5311531153117 435.0000000000001M 586.8711871187121 450.0000000000001L 586.8711871187121 420.00000000000006" style="fill:none;stroke:#000000;stroke-linecap:round;stroke-miterlimit:10;" id="shape_15"/></g><g id="I30"><path d="M 505.7130713071308 180L 503.2253225322533 180M 505.7130713071308 225L 505.7130713071308 135" style="fill:none;stroke:#000000;stroke-linecap:round;stroke-miterlimit:10;" id="shape_16"/></g><g id="I66"><path d="M 483.96089608960904 171.21093750000003L 388.4388438843885 171.21093750000003M 483.96089608960904 267.42187500000006L 483.96089608960904 75" style="fill:none;stroke:#000000;stroke-linecap:round;stroke-miterlimit:10;" id="shape_17"/></g><g id="I60"><path d="M 580.5330533053307 502.5000000000001L 561.5311531153117 502.5000000000001M 580.5330533053307 525.0000000000001L 580.5330533053307 480.0000000000001" style="fill:none;stroke:#000000;stroke-linecap:round;stroke-miterlimit:10;" id="shape_18"/></g><g id="I125"><g id="shape_19"><path d="M 545.3920392039205 195L 526.0026002600262 195" style="fill:none;stroke:#000000;stroke-linecap:round;stroke-miterlimit:10;"/><path d="M 545.3920392039205 195L 549.917491749175 225L 549.6799679967997 165L 545.3920392039205 195" style="fill:#000000;fill-opacity:0.5;stroke:#000000;stroke-linecap:round;stroke-miterlimit:10;"/></g></g><g id="I43"><path d="M 509.62596259625974 354.8437500000001L 503.2253225322533 354.8437500000001M 509.62596259625974 394.68750000000006L 509.62596259625974 315.00000000000006" style="fill:none;stroke:#000000;stroke-linecap:round;stroke-miterlimit:10;" id="shape_20"/></g><g id="I58"><path d="M 645.0000000000002 420.00000000000006L 596.1096109610963 420.00000000000006" style="fill:none;stroke:#aaaaaa;stroke-width:0.3;stroke-linecap:round;stroke-miterlimit:10;stroke-dasharray:5,10;" id="shape_21"/><text id="text_3" transform="matrix(1.0000,0.0000,0.0000,1.0000,645.0000,427.34)" fill="#000000" style="font-style:italic;font-size:20px;font-family:Georgia;">Ramlibacter sp. BXN5-27 (gb|EU423304.1)</text><path d="M 596.1096109610963 420.00000000000006L 586.8711871187121 420.00000000000006" style="fill:none;stroke:#000000;stroke-linecap:round;stroke-miterlimit:10;" id="shape_22"/></g><g id="I53"><path d="M 538.3788378837885 394.68750000000006L 520.889588958896 394.68750000000006M 538.3788378837885 429.3750000000001L 538.3788378837885 360.0000000000001" style="fill:none;stroke:#000000;stroke-linecap:round;stroke-miterlimit:10;" id="shape_23"/></g><g id="I64"><path d="M 645.0000000000002 540.0000000000001L 609.0484048404842 540.0000000000001" style="fill:none;stroke:#aaaaaa;stroke-width:0.3;stroke-linecap:round;stroke-miterlimit:10;stroke-dasharray:5,10;" id="shape_24"/><text id="text_4" transform="matrix(1.0000,0.0000,0.0000,1.0000,645.0000,547.34)" fill="#000000" style="font-style:italic;font-size:20px;font-family:Georgia;">Ramlibacter sp. TTB310 (ref|NR_074643.1)</text><path d="M 609.0484048404842 540.0000000000001L 593.0718071807182 540.0000000000001" style="fill:none;stroke:#000000;stroke-linecap:round;stroke-miterlimit:10;" id="shape_25"/></g><g id="I65"><path d="M 645.0000000000002 390.0000000000001L 554.6679667966798 390.0000000000001" style="fill:none;stroke:#aaaaaa;stroke-width:0.3;stroke-linecap:round;stroke-miterlimit:10;stroke-dasharray:5,10;" id="shape_26"/><text id="text_5" transform="matrix(1.0000,0.0000,0.0000,1.0000,645.0000,397.34)" fill="#000000" style="font-style:italic;font-size:20px;font-family:Georgia;">Ramlibacter sp. MAG (reconstructed 16S rRNA gene)</text><path d="M 554.6679667966798 390.0000000000001L 539.5039503950396 390.0000000000001" style="fill:none;stroke:#000000;stroke-linecap:round;stroke-miterlimit:10;" id="shape_27"/></g><g id="I44"><g id="shape_28"><path d="M 525.6900690069008 315.00000000000006L 509.62596259625974 315.00000000000006" style="fill:none;stroke:#000000;stroke-linecap:round;stroke-miterlimit:10;"/><path d="M 525.6900690069008 315.00000000000006L 574.79497949795 345.00000000000006L 542.0542054205422 285.00000000000006L 525.6900690069008 315.00000000000006" style="fill:#000000;fill-opacity:0.5;stroke:#000000;stroke-linecap:round;stroke-miterlimit:10;"/></g></g><g id="I56"><path d="M 561.5311531153117 468.75000000000017L 539.5039503950396 468.75000000000017M 561.5311531153117 502.5000000000001L 561.5311531153117 435.0000000000001" style="fill:none;stroke:#000000;stroke-linecap:round;stroke-miterlimit:10;" id="shape_29"/></g><g id="I28"><path d="M 515.6390639063907 225L 505.7130713071308 225M 515.6390639063907 225L 515.6390639063907 225" style="fill:none;stroke:#000000;stroke-linecap:round;stroke-miterlimit:10;" id="shape_30"/></g><g id="I62"><path d="M 593.0718071807182 525.0000000000001L 580.5330533053307 525.0000000000001M 593.0718071807182 540.0000000000001L 593.0718071807182 510.00000000000017" style="fill:none;stroke:#000000;stroke-linecap:round;stroke-miterlimit:10;" id="shape_31"/></g><g id="I55"><path d="M 539.5039503950396 429.3750000000001L 538.3788378837885 429.3750000000001M 539.5039503950396 468.75000000000017L 539.5039503950396 390.0000000000001" style="fill:none;stroke:#000000;stroke-linecap:round;stroke-miterlimit:10;" id="shape_32"/></g><g id="I59"><path d="M 645.0000000000002 450.0000000000001L 601.8851885188521 450.0000000000001" style="fill:none;stroke:#aaaaaa;stroke-width:0.3;stroke-linecap:round;stroke-miterlimit:10;stroke-dasharray:5,10;" id="shape_33"/><text id="text_6" transform="matrix(1.0000,0.0000,0.0000,1.0000,645.0000,457.34)" fill="#000000" style="font-style:italic;font-size:20px;font-family:Georgia;">Ramlibacter sp. SNGM03-03 (gb|JX443550.1)</text><path d="M 601.8851885188521 450.0000000000001L 586.8711871187121 450.0000000000001" style="fill:none;stroke:#000000;stroke-linecap:round;stroke-miterlimit:10;" id="shape_34"/></g><g id="NR0"><path d="M 194.21942194219426 93.10546875000001L 0 93.10546875000001M 194.21942194219426 93.10546875000001L 194.21942194219426 93.10546875000001" style="fill:none;stroke:#000000;stroke-linecap:round;stroke-miterlimit:10;" id="shape_35"/></g></g><g id="container_5"/><g id="container_6"><path d="M 13.500000000000002 0 L 5.460864712030896 3.9675504529741943 L 4.171729424061791 12.839262969984574 L -2.0858647120308946 6.419631484992288 L -10.921729424061791 7.9351009059483895 L -6.750000000000001 8.266365894244635e-16 L -10.921729424061793 -7.935100905948387 L -2.0858647120308964 -6.419631484992287 L 4.171729424061788 -12.839262969984576 L 5.4608647120308955 -3.9675504529741956 L 13.500000000000002 -3.306546357697854e-15 Z" style="fill:#000000;stroke:#000000;stroke-linecap:round;stroke-miterlimit:10;" id="shape_36" transform="matrix(0.9511,-0.3090,0.3090,0.9511,1141.7188,390.00)"/></g><g id="container_7"/><g id="container_8"/><g id="container_9"/></g><g id="container_10" transform="matrix(1.0000,0.0000,0.0000,1.0000,100.0000,100.00)"/><g id="container_11" transform="matrix(1.0000,0.0000,0.0000,1.0000,45.0000,36.00)"><path d="M 0 -3L 0 3M 0 0L 125.01250125012506 0M 125.01250125012506 -3L 125.01250125012506 3" style="fill:none;stroke:#000;stroke-width:0.5;stroke-linecap:round;stroke-miterlimit:10;" id="shape_38" transform="matrix(0.9203,0.0000,0.0000,1.0000,108.2275,8.00)"/><text id="text_7" transform="matrix(1.0000,0.0000,0.0000,1.0000,0.0000,10.51)" fill="#555" style="font-weight:bold;font-size:14px;font-family:Arial;">Tree scale: 0.1</text></g></g></svg>