<svg xmlns="http://www.w3.org/2000/svg" xmlns:xlink="http://www.w3.org/1999/xlink" width="2133" height="1012" style="border: 1px solid black; overflow: hidden;"><defs/><g id="container"><g id="container_1" transform="matrix(0.7804,0.0000,0.0000,0.7804,157.9265,260.67)"><g id="container_2"><path d="M 700 585L 1174.6875 585L 1174.6875 345L 700 345L 700 585" style="fill:#e2a2fd;stroke:#e2a2fd;stroke-linecap:round;stroke-miterlimit:10;" id="shape"/></g><g id="container_3"/><g id="container_4"><g id="I80"><g id="shape_1"><path d="M 572.7287200169815 135L 551.8998089577584 135" style="fill:none;stroke:#000000;stroke-linecap:round;stroke-miterlimit:10;"/><path d="M 572.7287200169815 135L 577.8364466143069 165L 577.040437274464 105L 572.7287200169815 135" style="fill:#000000;fill-opacity:0.5;stroke:#000000;stroke-linecap:round;stroke-miterlimit:10;"/></g></g><g id="I174"><path d="M 705 360L 631.0098705158141 360" style="fill:none;stroke:#aaaaaa;stroke-width:0.3;stroke-linecap:round;stroke-miterlimit:10;stroke-dasharray:5,10;" id="shape_2"/><text id="text" transform="matrix(1.0000,0.0000,0.0000,1.0000,705.0000,367.34)" fill="#000000" style="font-size:20px;font-family:Georgia;">Ramlibacter sp. strain 5-10 (ref|NR_133837.1)</text><path d="M 631.0098705158141 360L 596.4497983443006 360" style="fill:none;stroke:#000000;stroke-linecap:round;stroke-miterlimit:10;" id="shape_3"/></g><g id="I143"><path d="M 555.9461897686266 316.40625L 542.5599660369348 316.40625M 555.9461897686266 377.8125L 555.9461897686266 255" style="fill:none;stroke:#000000;stroke-linecap:round;stroke-miterlimit:10;" id="shape_4"/></g><g id="I85"><path d="M 414.6677987688389 86.42578125L 207.33389938441945 86.42578125M 414.6677987688389 157.8515625L 414.6677987688389 15" style="fill:none;stroke:#000000;stroke-linecap:round;stroke-miterlimit:10;" id="shape_5"/></g><g id="I170"><path d="M 641.6498620250477 555L 629.7760560390575 555M 641.6498620250477 570L 641.6498620250477 540" style="fill:none;stroke:#000000;stroke-linecap:round;stroke-miterlimit:10;" id="shape_6"/></g><g id="I165"><path d="M 636.4758013160687 465L 609.4512842284015 465M 636.4758013160687 480L 636.4758013160687 450" style="fill:none;stroke:#000000;stroke-linecap:round;stroke-miterlimit:10;" id="shape_7"/></g><g id="I169"><path d="M 705 510L 646.4126512417745 510" style="fill:none;stroke:#aaaaaa;stroke-width:0.3;stroke-linecap:round;stroke-miterlimit:10;stroke-dasharray:5,10;" id="shape_8"/><text id="text_1" transform="matrix(1.0000,0.0000,0.0000,1.0000,705.0000,517.34)" fill="#000000" style="font-size:20px;font-family:Georgia;">Ramlibacter sp. J26 (gb|KX395636.1)</text><path d="M 646.4126512417745 510L 629.7760560390575 510" style="fill:none;stroke:#000000;stroke-linecap:round;stroke-miterlimit:10;" id="shape_9"/></g><g id="I89"><g id="shape_10"><path d="M 539.0973254086181 15L 414.6677987688389 15" style="fill:none;stroke:#000000;stroke-linecap:round;stroke-miterlimit:10;"/><path d="M 539.0973254086181 15L 598.0550838463171 45L 546.3144767565273 -15L 539.0973254086181 15" style="fill:#000000;fill-opacity:0.5;stroke:#000000;stroke-linecap:round;stroke-miterlimit:10;"/></g></g><g id="I164"><path d="M 609.4512842284015 498.75L 589.94905540225 498.75M 609.4512842284015 532.5L 609.4512842284015 465" style="fill:none;stroke:#000000;stroke-linecap:round;stroke-miterlimit:10;" id="shape_11"/></g><g id="I163"><path d="M 589.94905540225 440.625L 566.8913181914668 440.625M 589.94905540225 498.75L 589.94905540225 382.5" style="fill:none;stroke:#000000;stroke-linecap:round;stroke-miterlimit:10;" id="shape_12"/></g><g id="I84"><path d="M 520.0594353640416 157.8515625L 414.6677987688389 157.8515625M 520.0594353640416 240.703125L 520.0594353640416 75" style="fill:none;stroke:#000000;stroke-linecap:round;stroke-miterlimit:10;" id="shape_13"/></g><g id="I175"><path d="M 613.1129271916791 405L 596.4497983443006 405M 613.1129271916791 420L 613.1129271916791 390" style="fill:none;stroke:#000000;stroke-linecap:round;stroke-miterlimit:10;" id="shape_14"/></g><g id="I168"><path d="M 629.7760560390575 532.5L 609.4512842284015 532.5M 629.7760560390575 555L 629.7760560390575 510" style="fill:none;stroke:#000000;stroke-linecap:round;stroke-miterlimit:10;" id="shape_15"/></g><g id="I171"><path d="M 705 540L 653.4971343663765 540" style="fill:none;stroke:#aaaaaa;stroke-width:0.3;stroke-linecap:round;stroke-miterlimit:10;stroke-dasharray:5,10;" id="shape_16"/><text id="text_2" transform="matrix(1.0000,0.0000,0.0000,1.0000,705.0000,547.34)" fill="#000000" style="font-size:20px;font-family:Georgia;">Ramlibacter sp. TMB834 (ref|NR_025203.1)</text><path d="M 653.4971343663765 540L 641.6498620250477 540" style="fill:none;stroke:#000000;stroke-linecap:round;stroke-miterlimit:10;" id="shape_17"/></g><g id="I83"><path d="M 542.5599660369348 240.703125L 520.0594353640416 240.703125M 542.5599660369348 316.40625L 542.5599660369348 165" style="fill:none;stroke:#000000;stroke-linecap:round;stroke-miterlimit:10;" id="shape_18"/></g><g id="I79"><path d="M 551.8998089577584 165L 542.5599660369348 165M 551.8998089577584 195L 551.8998089577584 135" style="fill:none;stroke:#000000;stroke-linecap:round;stroke-miterlimit:10;" id="shape_19"/></g><g id="I167"><path d="M 705 480L 654.1472086605816 480" style="fill:none;stroke:#aaaaaa;stroke-width:0.3;stroke-linecap:round;stroke-miterlimit:10;stroke-dasharray:5,10;" id="shape_20"/><text id="text_3" transform="matrix(1.0000,0.0000,0.0000,1.0000,705.0000,487.34)" fill="#000000" style="font-size:20px;font-family:Georgia;">Ramlibacter sp. SNGM03-03 (gb|JX443550.1)</text><path d="M 654.1472086605816 480L 636.4758013160687 480" style="fill:none;stroke:#000000;stroke-linecap:round;stroke-miterlimit:10;" id="shape_21"/></g><g id="I156"><g id="shape_22"><path d="M 582.1083634047972 315L 566.8913181914668 315" style="fill:none;stroke:#000000;stroke-linecap:round;stroke-miterlimit:10;"/><path d="M 582.1083634047972 315L 628.0911696030565 345L 596.3569305879854 285L 582.1083634047972 315" style="fill:#000000;fill-opacity:0.5;stroke:#000000;stroke-linecap:round;stroke-miterlimit:10;"/></g></g><g id="I176"><path d="M 705 390L 613.8426024198684 390" style="fill:none;stroke:#aaaaaa;stroke-width:0.3;stroke-linecap:round;stroke-miterlimit:10;stroke-dasharray:5,10;" id="shape_23"/><text id="text_4" transform="matrix(1.0000,0.0000,0.0000,1.0000,705.0000,397.34)" fill="#000000" style="font-size:20px;font-family:Georgia;">Ramlibacter sp. MAG (reconstructed 16S rRNA gene)</text><path d="M 613.8426024198684 390L 613.1129271916791 390" style="fill:none;stroke:#000000;stroke-linecap:round;stroke-miterlimit:10;" id="shape_24"/></g><g id="I166"><path d="M 705 450L 644.5818297601357 450" style="fill:none;stroke:#aaaaaa;stroke-width:0.3;stroke-linecap:round;stroke-miterlimit:10;stroke-dasharray:5,10;" id="shape_25"/><text id="text_5" transform="matrix(1.0000,0.0000,0.0000,1.0000,705.0000,457.34)" fill="#000000" style="font-size:20px;font-family:Georgia;">Ramlibacter sp. BXN5-27 (gb|EU423304.1)</text><path d="M 644.5818297601357 450L 636.4758013160687 450" style="fill:none;stroke:#000000;stroke-linecap:round;stroke-miterlimit:10;" id="shape_26"/></g><g id="I172"><path d="M 705 570L 658.1007217151348 570" style="fill:none;stroke:#aaaaaa;stroke-width:0.3;stroke-linecap:round;stroke-miterlimit:10;stroke-dasharray:5,10;" id="shape_27"/><text id="text_6" transform="matrix(1.0000,0.0000,0.0000,1.0000,705.0000,577.34)" fill="#000000" style="font-size:20px;font-family:Georgia;">Ramlibacter sp. TTB310 (ref|NR_074643.1)</text><path d="M 658.1007217151348 570L 641.6498620250477 570" style="fill:none;stroke:#000000;stroke-linecap:round;stroke-miterlimit:10;" id="shape_28"/></g><g id="I78"><g id="shape_29"><path d="M 583.1299087242624 195L 551.8998089577584 195" style="fill:none;stroke:#000000;stroke-linecap:round;stroke-miterlimit:10;"/><path d="M 583.1299087242624 195L 999.9999999999999 225L 681.1053916365952 165L 583.1299087242624 195" style="fill:#000000;fill-opacity:0.5;stroke:#000000;stroke-linecap:round;stroke-miterlimit:10;"/></g></g><g id="I144"><g id="shape_30"><path d="M 584.2575886223732 255L 555.9461897686266 255" style="fill:none;stroke:#000000;stroke-linecap:round;stroke-miterlimit:10;"/><path d="M 584.2575886223732 255L 668.7274464020378 285L 623.461048609637 225L 584.2575886223732 255" style="fill:#000000;fill-opacity:0.5;stroke:#000000;stroke-linecap:round;stroke-miterlimit:10;"/></g></g><g id="I173"><path d="M 596.4497983443006 382.5L 589.94905540225 382.5M 596.4497983443006 405L 596.4497983443006 360" style="fill:none;stroke:#000000;stroke-linecap:round;stroke-miterlimit:10;" id="shape_31"/></g><g id="I98"><g id="shape_32"><path d="M 555.4420505200594 75L 520.0594353640416 75" style="fill:none;stroke:#000000;stroke-linecap:round;stroke-miterlimit:10;"/><path d="M 555.4420505200594 75L 616.2704309063893 105L 572.14497983443 45L 555.4420505200594 75" style="fill:#000000;fill-opacity:0.5;stroke:#000000;stroke-linecap:round;stroke-miterlimit:10;"/></g></g><g id="I155"><path d="M 566.8913181914668 377.8125L 555.9461897686266 377.8125M 566.8913181914668 440.625L 566.8913181914668 315" style="fill:none;stroke:#000000;stroke-linecap:round;stroke-miterlimit:10;" id="shape_33"/></g><g id="I177"><path d="M 705 420L 613.8293355975377 420" style="fill:none;stroke:#aaaaaa;stroke-width:0.3;stroke-linecap:round;stroke-miterlimit:10;stroke-dasharray:5,10;" id="shape_34"/><text id="text_7" transform="matrix(1.0000,0.0000,0.0000,1.0000,705.0000,427.34)" fill="#000000" style="font-size:20px;font-family:Georgia;">Ramlibacter sp. isolate (partial 16S rRNA gene)</text><path d="M 613.8293355975377 420L 613.1129271916791 420" style="fill:none;stroke:#000000;stroke-linecap:round;stroke-miterlimit:10;" id="shape_35"/></g><g id="NR0"><g id="shape_36"><path d="M 207.33389938441945 86.42578125L 0 86.42578125" style="fill:none;stroke:#000000;stroke-linecap:round;stroke-miterlimit:10;"/><circle cx="207.33389938441945" cy="86.42578125" r="2" style="fill:#000000;stroke:#000000;stroke-linecap:round;stroke-miterlimit:10;"/></g></g></g><g id="container_5"/><g id="container_6"><path d="M 13.5 0 L 5.4608647120308955 3.967550452974194 L 4.171729424061791 12.839262969984572 L -2.0858647120308946 6.419631484992287 L -10.92172942406179 7.935100905948389 L -6.75 8.266365894244634e-16 L -10.921729424061791 -7.935100905948386 L -2.085864712030896 -6.419631484992286 L 4.1717294240617875 -12.839262969984574 L 5.460864712030895 -3.967550452974195 L 13.5 -3.3065463576978537e-15 Z" style="fill:#000000;stroke:#000000;stroke-linecap:round;stroke-miterlimit:10;" id="shape_37" transform="matrix(0.9511,-0.3090,0.3090,0.9511,1194.6875,390.00)"/><path d="M 13.5 0 L 5.4608647120308955 3.967550452974194 L 4.171729424061791 12.839262969984572 L -2.0858647120308946 6.419631484992287 L -10.92172942406179 7.935100905948389 L -6.75 8.266365894244634e-16 L -10.921729424061791 -7.935100905948386 L -2.085864712030896 -6.419631484992286 L 4.1717294240617875 -12.839262969984574 L 5.460864712030895 -3.967550452974195 L 13.5 -3.3065463576978537e-15 Z" style="fill:#000000;stroke:#000000;stroke-linecap:round;stroke-miterlimit:10;" id="shape_38" transform="matrix(0.9511,-0.3090,0.3090,0.9511,1194.6875,420.00)"/></g><g id="container_7"/><g id="container_8"/><g id="container_9"/></g><g id="container_10" transform="matrix(1.0000,0.0000,0.0000,1.0000,100.0000,100.00)"/><g id="container_11" transform="matrix(1.0000,0.0000,0.0000,1.0000,45.0000,36.00)"><path d="M 0 -3L 0 3M 0 0L 13.266822330715348 0M 13.266822330715348 -3L 13.266822330715348 3" style="fill:none;stroke:#000;stroke-width:0.5;stroke-linecap:round;stroke-miterlimit:10;" id="shape_40" transform="matrix(0.7804,0.0000,0.0000,1.0000,116.2275,8.00)"/><text id="text_8" transform="matrix(1.0000,0.0000,0.0000,1.0000,0.0000,10.51)" fill="#555" style="font-weight:bold;font-size:14px;font-family:Arial;">Tree scale: 0.01</text></g></g></svg>